# xmcd CD database file
#
# Track frame offsets:
#	150
#	32362
#	59125
#	94062
#	128870
#	158130
#
# Disc length: 2512 seconds
#
# Revision: 2
# Processed by: cddbd v1.5.2PL0 Copyright (c) Steve Scherf et al.
# Submitted via: CDex 1.81
#
DISCID=4909ce06
DTITLE=Jimmy Smith - Root Down - Jimmy Smith Live!
DYEAR=1972
DGENRE=Jazz
TTITLE0=Sagg Shootin' His Arrow
TTITLE1=For Everyone Under the Sun
TTITLE2=After Hours
TTITLE3=Root Down (And Get It)
TTITLE4=Let's Stay Together
TTITLE5=Slow Down Sagg
EXTD=YEAR: 1972
EXTT0=
EXTT1=
EXTT2=
EXTT3=
EXTT4=
EXTT5=
PLAYORDER=
